<svg width="12" height="17" viewBox="0 0 12 17" fill="none" xmlns="http://www.w3.org/2000/svg">
    <path d="M6.0013 0.666992C2.7763 0.666992 0.167969 3.27533 0.167969 6.50033C0.167969 9.97533 3.8513 14.767 5.36797 16.592C5.7013 16.992 6.30964 16.992 6.64297 16.592C8.1513 14.767 11.8346 9.97533 11.8346 6.50033C11.8346 3.27533 9.2263 0.666992 6.0013 0.666992ZM6.0013 8.58366C4.8513 8.58366 3.91797 7.65033 3.91797 6.50033C3.91797 5.35033 4.8513 4.41699 6.0013 4.41699C7.1513 4.41699 8.08464 5.35033 8.08464 6.50033C8.08464 7.65033 7.1513 8.58366 6.0013 8.58366Z"
          fill="#00B3A8"/>
</svg>
