<svg width="50" height="38" viewBox="0 0 50 38" fill="none" xmlns="http://www.w3.org/2000/svg">
    <rect width="49.875" height="38" rx="6.33333" fill="white"/>
    <g clip-path="url(#clip0_6122_57743)">
        <path fill-rule="evenodd" clip-rule="evenodd"
              d="M27.0279 22.4848C26.5577 22.4848 26.1762 22.0996 26.1762 21.6248V19.009V15.8379C26.1673 14.0911 24.7655 12.6667 23.0266 12.6667H22.0063V15.5244H22.5918C23.062 15.5244 23.4435 15.9096 23.4435 16.3843V19.0001V22.1623C23.4435 23.918 24.8542 25.3334 26.5843 25.3334H27.6046V22.4758H27.0279V22.4848ZM32.6351 22.4848C32.1649 22.4848 31.7834 22.0996 31.7834 21.6248V19.009V15.8379C31.7834 14.0821 30.3727 12.6667 28.6426 12.6667H27.6224V15.5244H28.2079C28.6781 15.5244 29.0596 15.9096 29.0596 16.3843V19.0001V22.1623C29.0596 23.918 30.4703 25.3334 32.2004 25.3334H33.2207V22.4758H32.6351V22.4848ZM33.2207 20.5767C33.2207 17.9699 35.3145 15.8558 37.8963 15.8558C40.4781 15.8558 42.5719 17.9699 42.5719 20.5767C42.5719 23.1835 40.4781 25.2976 37.8963 25.2976C35.3145 25.2976 33.2207 23.1835 33.2207 20.5767ZM35.696 20.5767C35.696 21.8039 36.6808 22.7983 37.8963 22.7983C39.1118 22.7983 40.0966 21.8039 40.0966 20.5767C40.0966 19.3494 39.1118 18.3551 37.8963 18.3551C36.6808 18.3551 35.696 19.3494 35.696 20.5767ZM45.9167 23.9628C45.9167 24.7064 45.3134 25.3155 44.577 25.3155C43.8406 25.3155 43.2373 24.7064 43.2373 23.9628C43.2373 23.2193 43.8406 22.6102 44.577 22.6102C45.3222 22.6102 45.9167 23.2104 45.9167 23.9628ZM43.397 13.3565V12.6667H45.8457V13.3565V22.01H43.397V13.3565ZM4.75 23.721L5.93887 21.7681C6.9769 22.4668 8.12141 22.8162 9.06185 22.8162C9.61193 22.8162 10.0644 22.646 10.0644 22.2877C10.0644 21.9418 9.41147 21.7712 8.50447 21.5343L8.40532 21.5083C6.61315 21.0246 5.18473 20.4334 5.18473 18.5522C5.18473 16.5993 6.72848 15.5154 8.83118 15.5154C10.162 15.5154 11.5372 15.9096 12.5752 16.5814L11.4839 18.6149C10.5435 18.0953 9.5232 17.7728 8.79569 17.7728C8.30772 17.7728 8.0593 17.961 8.0593 18.2476C8.0593 18.6059 8.58276 18.7761 9.54095 19.0628C11.342 19.5913 12.7704 20.2005 12.7704 22.01C12.7704 24.0255 11.271 25.0826 9.06185 25.0826C7.5181 25.0826 6.00984 24.6437 4.75 23.721ZM17.8364 15.8469C20.4182 15.8469 22.512 17.961 22.512 20.5677V20.6125V21.2038H15.8402C16.062 22.0727 16.8605 22.6818 17.9606 22.6818C18.6615 22.6818 19.0607 22.4937 19.4334 22.2429L22.1128 23.0222C21.4296 24.2585 20.0722 25.2886 17.9251 25.2886C15.2635 25.2886 13.1608 23.2283 13.1608 20.5677C13.1608 17.961 15.2546 15.8469 17.8364 15.8469ZM19.8415 19.9496C19.5842 19.0807 18.7857 18.4536 17.8364 18.4536C16.8959 18.4536 16.0975 19.0807 15.8313 19.9496H19.8415Z"
              fill="#00B3A8"/>
    </g>
    <defs>
        <clipPath id="clip0_6122_57743">
            <rect width="41.1667" height="12.6667" fill="white" transform="translate(4.75 12.6667)"/>
        </clipPath>
    </defs>
</svg>
